<svg xmlns="http://www.w3.org/2000/svg"  viewBox="0 0 223.74 54.29" >
  <defs>
    <style>
      .cls-1 {
        fill: none;
      }

      .cls-2 {
        clip-path: url(#clip-path-logo-asabix);
      }

      .cls-3 {
        fill: #318ef1;
      }
    </style>
    <clipPath id="clip-path-logo-asabix" transform="translate(-288.13 -272.85)">
      <rect class="cls-1" width="800" height="600"/>
    </clipPath>
  </defs>
  <title>logo-v2</title>
  <g class="cls-2">
    <path class="cls-3" d="M356.38,303H348a6.25,6.25,0,0,1-6-4.27,6.12,6.12,0,0,1,5.49-7.92h13a6,6,0,0,0,6-6h-19a12.15,12.15,0,0,0-11.4,15.13,12.44,12.44,0,0,0,12.17,9.17H358.3a6.18,6.18,0,0,1,0,12h-13a6,6,0,0,0-6,6h17.62A12.09,12.09,0,0,0,369,314c-.56-6.34-6.25-11-12.62-11" transform="translate(-288.13 -272.85)"/>
    <path class="cls-3" d="M441.17,284.81h-14.5v-6a5.93,5.93,0,0,0-5.92-5.93v32.38c0,11.91,9.52,22.06,21.43,21.91a21.17,21.17,0,0,0,20.91-20.9c.14-11.91-10-21.43-21.92-21.43m15.59,24.34a15.07,15.07,0,0,1-11.47,11.62A15.25,15.25,0,0,1,426.67,306V290.73l15.25.09a15.18,15.18,0,0,1,14.84,18.33" transform="translate(-288.13 -272.85)"/>
    <path class="cls-3" d="M467.32,273.88v6h6a6,6,0,0,0-6-6" transform="translate(-288.13 -272.85)"/>
    <rect class="cls-3" x="179.19" y="11.95" width="6.01" height="42.34"/>
    <path class="cls-3" d="M510.1,286.57a5.92,5.92,0,0,0-4.26-1.77v6h6a5.92,5.92,0,0,0-1.77-4.26" transform="translate(-288.13 -272.85)"/>
    <path class="cls-3" d="M504.42,306.9a17.25,17.25,0,0,0,7.2-11.16h-6a10.16,10.16,0,0,1-5.61,7c-8.1,3.69-15.9-1.7-16.35-9.22l-.07-8.72h-6v9a17.15,17.15,0,0,0,7.55,13.11A17.21,17.21,0,0,0,477.56,320v7.1h6l.07-6.85a11.11,11.11,0,0,1,22.18,0v6.85h6V320a17.39,17.39,0,0,0-7.45-13.13" transform="translate(-288.13 -272.85)"/>
    <path class="cls-3" d="M409.49,291.6a21.18,21.18,0,1,0-15.58,35.55h21.25v-6.62h0V287.3a5.91,5.91,0,0,0-5.68,4.3m-.34,29.62H393.91A15.2,15.2,0,1,1,409.15,306Z" transform="translate(-288.13 -272.85)"/>
    <path class="cls-3" d="M324.88,291.6a21.18,21.18,0,1,0-15.58,35.55h21.25v-6.62h0V287.3a5.91,5.91,0,0,0-5.67,4.3m-.34,29.62H309.3A15.2,15.2,0,1,1,324.54,306Z" transform="translate(-288.13 -272.85)"/>
  </g>
</svg>
