<svg width="177" height="41" viewBox="0 0 177 41" fill="none" xmlns="http://www.w3.org/2000/svg">
<path d="M61.777 21.859C61.777 21.905 61.754 22.227 61.708 22.825H52.347C52.5157 23.5917 52.9143 24.1973 53.543 24.642C54.1717 25.0867 54.9537 25.309 55.889 25.309C56.533 25.309 57.1003 25.217 57.591 25.033C58.097 24.8337 58.5647 24.527 58.994 24.113L60.903 26.183C59.7377 27.517 58.0357 28.184 55.797 28.184C54.4017 28.184 53.1673 27.9157 52.094 27.379C51.0207 26.827 50.1927 26.068 49.61 25.102C49.0273 24.136 48.736 23.0397 48.736 21.813C48.736 20.6017 49.0197 19.513 49.587 18.547C50.1697 17.5657 50.9593 16.8067 51.956 16.27C52.968 15.718 54.095 15.442 55.337 15.442C56.5483 15.442 57.6447 15.7027 58.626 16.224C59.6073 16.7453 60.374 17.4967 60.926 18.478C61.4933 19.444 61.777 20.571 61.777 21.859ZM55.36 18.156C54.5473 18.156 53.865 18.386 53.313 18.846C52.761 19.306 52.4237 19.9347 52.301 20.732H58.396C58.2733 19.95 57.936 19.329 57.384 18.869C56.832 18.3937 56.1573 18.156 55.36 18.156ZM69.4788 28.276C68.2061 28.276 66.9718 28.1073 65.7758 27.77C64.5951 27.4173 63.6444 26.965 62.9238 26.413L64.1888 23.607C64.8788 24.113 65.6991 24.5193 66.6498 24.826C67.6004 25.1327 68.5511 25.286 69.5018 25.286C70.5598 25.286 71.3418 25.1327 71.8478 24.826C72.3538 24.504 72.6068 24.0823 72.6068 23.561C72.6068 23.1777 72.4534 22.8633 72.1468 22.618C71.8554 22.3573 71.4721 22.1503 70.9968 21.997C70.5368 21.8437 69.9081 21.675 69.1108 21.491C67.8841 21.1997 66.8798 20.9083 66.0978 20.617C65.3158 20.3257 64.6411 19.858 64.0738 19.214C63.5218 18.57 63.2458 17.7113 63.2458 16.638C63.2458 15.7027 63.4988 14.8593 64.0048 14.108C64.5108 13.3413 65.2698 12.7357 66.2818 12.291C67.3091 11.8463 68.5588 11.624 70.0308 11.624C71.0581 11.624 72.0624 11.7467 73.0438 11.992C74.0251 12.2373 74.8838 12.59 75.6198 13.05L74.4698 15.879C72.9824 15.0357 71.4951 14.614 70.0078 14.614C68.9651 14.614 68.1908 14.7827 67.6848 15.12C67.1941 15.4573 66.9488 15.902 66.9488 16.454C66.9488 17.006 67.2324 17.42 67.7998 17.696C68.3824 17.9567 69.2641 18.2173 70.4448 18.478C71.6714 18.7693 72.6758 19.0607 73.4578 19.352C74.2398 19.6433 74.9068 20.1033 75.4588 20.732C76.0261 21.3607 76.3098 22.2117 76.3098 23.285C76.3098 24.205 76.0491 25.0483 75.5278 25.815C75.0218 26.5663 74.2551 27.1643 73.2278 27.609C72.2004 28.0537 70.9508 28.276 69.4788 28.276ZM85.6868 15.442C86.8368 15.442 87.8794 15.7103 88.8148 16.247C89.7654 16.7683 90.5091 17.512 91.0458 18.478C91.5824 19.4287 91.8508 20.5403 91.8508 21.813C91.8508 23.0857 91.5824 24.205 91.0458 25.171C90.5091 26.1217 89.7654 26.8653 88.8148 27.402C87.8794 27.9233 86.8368 28.184 85.6868 28.184C84.1074 28.184 82.8654 27.6857 81.9608 26.689V32.462H78.3728V15.626H81.7998V17.052C82.6891 15.9787 83.9848 15.442 85.6868 15.442ZM85.0658 25.24C85.9858 25.24 86.7371 24.9333 87.3198 24.32C87.9178 23.6913 88.2168 22.8557 88.2168 21.813C88.2168 20.7703 87.9178 19.9423 87.3198 19.329C86.7371 18.7003 85.9858 18.386 85.0658 18.386C84.1458 18.386 83.3868 18.7003 82.7888 19.329C82.2061 19.9423 81.9148 20.7703 81.9148 21.813C81.9148 22.8557 82.2061 23.6913 82.7888 24.32C83.3868 24.9333 84.1458 25.24 85.0658 25.24ZM106.489 15.626V28H103.085V26.528C102.609 27.0647 102.042 27.4787 101.383 27.77C100.723 28.046 100.01 28.184 99.2436 28.184C97.6183 28.184 96.3303 27.7163 95.3796 26.781C94.429 25.8457 93.9536 24.458 93.9536 22.618V15.626H97.5416V22.089C97.5416 24.0823 98.3773 25.079 100.049 25.079C100.907 25.079 101.597 24.803 102.119 24.251C102.64 23.6837 102.901 22.848 102.901 21.744V15.626H106.489ZM117.564 27.402C117.211 27.6627 116.774 27.862 116.253 28C115.747 28.1227 115.21 28.184 114.643 28.184C113.171 28.184 112.028 27.8083 111.216 27.057C110.418 26.3057 110.02 25.2017 110.02 23.745V18.662H108.111V15.902H110.02V12.889H113.608V15.902H116.69V18.662H113.608V23.699C113.608 24.2203 113.738 24.6267 113.999 24.918C114.275 25.194 114.658 25.332 115.149 25.332C115.716 25.332 116.199 25.1787 116.598 24.872L117.564 27.402ZM126.869 15.442C128.402 15.442 129.636 15.902 130.572 16.822C131.522 17.742 131.998 19.1067 131.998 20.916V28H128.41V21.468C128.41 20.4867 128.195 19.7583 127.766 19.283C127.336 18.7923 126.715 18.547 125.903 18.547C124.998 18.547 124.277 18.8307 123.741 19.398C123.204 19.95 122.936 20.778 122.936 21.882V28H119.348V15.626H122.775V17.075C123.25 16.5537 123.84 16.155 124.546 15.879C125.251 15.5877 126.025 15.442 126.869 15.442ZM135.02 15.626H138.608V28H135.02V15.626ZM136.814 13.901C136.155 13.901 135.618 13.7093 135.204 13.326C134.79 12.9427 134.583 12.4673 134.583 11.9C134.583 11.3327 134.79 10.8573 135.204 10.474C135.618 10.0907 136.155 9.899 136.814 9.899C137.473 9.899 138.01 10.083 138.424 10.451C138.838 10.819 139.045 11.279 139.045 11.831C139.045 12.429 138.838 12.9273 138.424 13.326C138.01 13.7093 137.473 13.901 136.814 13.901ZM147.021 23.147L145.296 24.849V28H141.708V10.934H145.296V20.594L150.54 15.626H154.818L149.666 20.87L155.278 28H150.931L147.021 23.147Z" fill="#2B64CD"/>
<g filter="url(#filter0_i_1467_1566)">
<path d="M175.722 3.39248C173.588 -2.27757 166.65 0.257276 166.017 3.0923C165.149 0.09051 158.379 -2.14416 156.311 3.39248C154.009 9.56283 165.216 15.0995 166.017 16C166.817 15.2662 178.024 9.46277 175.722 3.39248" fill="#FFD910"/>
<mask id="mask0_1467_1566" style="mask-type:alpha" maskUnits="userSpaceOnUse" x="156" y="0" width="21" height="16">
<path d="M175.722 3.39248C173.588 -2.27757 166.65 0.257276 166.017 3.0923C165.149 0.09051 158.379 -2.14416 156.311 3.39248C154.009 9.56283 165.216 15.0995 166.017 16C166.817 15.2662 178.024 9.46277 175.722 3.39248" fill="#FF9900"/>
</mask>
<g mask="url(#mask0_1467_1566)">
<rect x="152.545" y="-0.0692139" width="29.6844" height="9.00537" transform="rotate(-7.33584 152.545 -0.0692139)" fill="#2B64CD"/>
</g>
</g>
<path fill-rule="evenodd" clip-rule="evenodd" d="M41 20.5C41 9.17944 31.8213 0 20.5 0C9.17867 0 0 9.17944 0 20.5C0 22.7771 0.371357 24.9675 1.05681 27.014L8.85711 24.0352C8.55872 22.9418 8.40132 21.7929 8.40132 20.6081C8.40132 18.1439 9.08336 15.8363 10.2704 13.8649L0.485879 16.0435C0.882638 14.4213 1.37596 12.8239 2.13669 11.378L18.7597 7.76135L18.7498 7.76788C19.6778 7.56225 20.6418 7.45455 21.6288 7.45455C28.236 7.45455 33.7119 12.2819 34.6923 18.5812L33.5053 19.0349L33.0659 19.2014L30.7116 20.0989L19.6942 24.3094L19.6876 24.3029C19.4384 24.4073 19.163 24.4661 18.8744 24.4661C17.7268 24.4661 16.7988 23.5424 16.7988 22.4033C16.7988 21.4665 17.4284 20.6734 18.2908 20.4221L29.5312 16.13C27.9638 13.3981 25.0062 11.554 21.6157 11.554C16.5857 11.554 12.5099 15.6078 12.5099 20.6114C12.5099 25.6117 16.5857 29.6687 21.6157 29.6687C25.5833 29.6687 28.9607 27.1425 30.2067 23.6207C30.3772 22.6513 31.2264 21.9169 32.2495 21.9169C33.3971 21.9169 34.3251 22.8406 34.3251 23.9797C34.3251 24.2702 34.2628 24.5476 34.1545 24.799C33.0922 27.9421 30.8658 30.5565 27.9835 32.133L14.6929 40.1657C16.5341 40.7086 18.483 41 20.5 41C31.8213 41 41 31.8206 41 20.5ZM10.0536 38.142L18.094 33.2819C14.9626 32.4202 12.2968 30.439 10.5589 27.8018L2.76139 30.7818C4.52284 33.8139 7.03944 36.3532 10.0536 38.142Z" fill="#2B64CD"/>
<defs>
<filter id="filter0_i_1467_1566" x="156" y="0" width="20.0332" height="16" filterUnits="userSpaceOnUse" color-interpolation-filters="sRGB">
<feFlood flood-opacity="0" result="BackgroundImageFix"/>
<feBlend mode="normal" in="SourceGraphic" in2="BackgroundImageFix" result="shape"/>
<feColorMatrix in="SourceAlpha" type="matrix" values="0 0 0 0 0 0 0 0 0 0 0 0 0 0 0 0 0 0 127 0" result="hardAlpha"/>
<feOffset/>
<feGaussianBlur stdDeviation="2"/>
<feComposite in2="hardAlpha" operator="arithmetic" k2="-1" k3="1"/>
<feColorMatrix type="matrix" values="0 0 0 0 0 0 0 0 0 0 0 0 0 0 0 0 0 0 0.25 0"/>
<feBlend mode="normal" in2="shape" result="effect1_innerShadow_1467_1566"/>
</filter>
</defs>
</svg>
